<svg xmlns="http://www.w3.org/2000/svg" viewBox="-392 -314 946 492" width="946" height="492" role="img" aria-label="CLX-CT-01 plan section at height 195 mm, back below: body 285 mm wide and about 168 mm deep at this height; back pads either side of a 36 mm spine channel; laptop tunnel 28 mm deep, a placeholder volume; camera core 190 by 130 mm; side hatch on one side with an illustrative swing and the retention gate; tripod dock channel 40 mm, opposite the hatch. Start dimensions; positions schematic."><rect x="-392" y="-314" width="946" height="492" fill="#F4EEE4"/><text x="-380" y="-290" font-family="IBM Plex Mono, Menlo, monospace" font-size="17" fill="#6D5F56" letter-spacing="1.5">CLX-CT-01 · PLAN SECTION AT Z 195 · BACK BELOW</text><path d="M-142.5 0 H142.5 V-33 M142.5 -153 V-167.8 H-142.5 V-118 H-128.5 V-78 H-142.5 V0" fill="none" stroke="#2B201B" stroke-width="2.2" stroke-linejoin="round"/><path d="M-142.5 0 H142.5 V-167.8 H-142.5 Z" fill="#EDE4D8" fill-opacity=".7"/><rect x="-120" y="0" width="102" height="12" rx="4" fill="#E2D8CB" stroke="#2B201B" stroke-width="1.2"/><rect x="18" y="0" width="102" height="12" rx="4" fill="#E2D8CB" stroke="#2B201B" stroke-width="1.2"/><line x1="-172.5" y1="0" x2="172.5" y2="0" stroke="#3F8F4E" stroke-width="2.4" stroke-dasharray="10 5"/><rect x="-120" y="-28" width="240" height="28" fill="#2F8F86" fill-opacity=".14" stroke="#2F8F86" stroke-width="1.8" stroke-dasharray="7 4"/><rect x="-95" y="-158" width="190" height="130" fill="#F6D9CB" stroke="#D9532A" stroke-width="2.2"/><path d="M142.5 -33 A120 120 0 0 0 202.5 -49.1" fill="none" stroke="#2B201B" stroke-width="1.2" stroke-dasharray="4 4"/><line x1="142.5" y1="-153" x2="202.5" y2="-49.1" stroke="#2B201B" stroke-width="2"/><path d="M134.5 -36 Q120.5 -93 134.5 -150" fill="none" stroke="#C98A28" stroke-width="4" stroke-linecap="round"/><rect x="-142.5" y="-118" width="14" height="40" fill="#2F8F86" fill-opacity=".25" stroke="#2F8F86" stroke-width="1.6"/><g stroke="#2B201B" stroke-width="1.2"><line x1="-142.5" y1="-232" x2="142.5" y2="-232"/><line x1="-142.5" y1="-239" x2="-142.5" y2="-225"/><line x1="142.5" y1="-239" x2="142.5" y2="-225"/><line x1="-142.5" y1="-170.8" x2="-142.5" y2="-239"/><line x1="142.5" y1="-170.8" x2="142.5" y2="-239"/></g><text x="0" y="-240.5" text-anchor="middle" font-family="IBM Plex Mono, Menlo, monospace" font-size="17" fill="#2B201B">285</text><g stroke="#2B201B" stroke-width="1.2"><line x1="-170.5" y1="0" x2="-170.5" y2="-167.8"/><line x1="-177.5" y1="0" x2="-163.5" y2="0"/><line x1="-177.5" y1="-167.8" x2="-163.5" y2="-167.8"/></g><text x="-180.5" y="-78.3" text-anchor="end" font-family="IBM Plex Mono, Menlo, monospace" font-size="17" fill="#2B201B">≈168</text><g stroke="#2B201B" stroke-width="1.2"><line x1="-95" y1="-190" x2="95" y2="-190"/><line x1="-95" y1="-197" x2="-95" y2="-183"/><line x1="95" y1="-197" x2="95" y2="-183"/><line x1="-95" y1="-161" x2="-95" y2="-197"/><line x1="95" y1="-161" x2="95" y2="-197"/></g><text x="0" y="-198.5" text-anchor="middle" font-family="IBM Plex Mono, Menlo, monospace" font-size="17" fill="#2B201B">190</text><g stroke="#2B201B" stroke-width="1.2"><line x1="-18" y1="24" x2="18" y2="24"/><line x1="-18" y1="20" x2="-18" y2="28"/><line x1="18" y1="20" x2="18" y2="28"/></g><text x="0" y="44.4" text-anchor="middle" font-family="IBM Plex Mono, Menlo, monospace" font-size="17" fill="#2B201B">36</text><path d="M80 -100 L220 -206.5 L228 -206.5" fill="none" stroke="#D9532A" stroke-width="1.3" stroke-linejoin="round"/><circle cx="80" cy="-100" r="3.2" fill="#D9532A"/><text x="232" y="-200" font-family="Inter Tight, Helvetica Neue, Helvetica, Arial, sans-serif" font-size="19" fill="#2B201B"><tspan font-family="IBM Plex Mono, Menlo, monospace" font-size="17" fill="#D9532A">M02</tspan> Camera core</text><text x="232" y="-175.9" font-family="IBM Plex Mono, Menlo, monospace" font-size="17" fill="#6D5F56">190 W × 130 D at this cut</text><path d="M172.5 -101 L220 -144.5 L228 -144.5" fill="none" stroke="#2B201B" stroke-width="1.3" stroke-linejoin="round"/><circle cx="172.5" cy="-101" r="3.2" fill="#2B201B"/><text x="232" y="-138" font-family="Inter Tight, Helvetica Neue, Helvetica, Arial, sans-serif" font-size="19" fill="#2B201B"><tspan font-family="IBM Plex Mono, Menlo, monospace" font-size="17" fill="#2B201B">M03</tspan> Side hatch</text><text x="232" y="-113.9" font-family="IBM Plex Mono, Menlo, monospace" font-size="17" fill="#6D5F56">120 wide · swing illustrative</text><path d="M128.6 -70 L220 -82.5 L228 -82.5" fill="none" stroke="#C98A28" stroke-width="1.3" stroke-linejoin="round"/><circle cx="128.6" cy="-70" r="3.2" fill="#C98A28"/><text x="232" y="-76" font-family="Inter Tight, Helvetica Neue, Helvetica, Arial, sans-serif" font-size="19" fill="#2B201B"><tspan font-family="IBM Plex Mono, Menlo, monospace" font-size="17" fill="#C98A28">M03</tspan> Retention gate</text><text x="232" y="-51.9" font-family="IBM Plex Mono, Menlo, monospace" font-size="17" fill="#6D5F56">placeholder</text><path d="M110 -14 L220 -20.5 L228 -20.5" fill="none" stroke="#2F8F86" stroke-width="1.3" stroke-linejoin="round"/><circle cx="110" cy="-14" r="3.2" fill="#2F8F86"/><text x="232" y="-14" font-family="Inter Tight, Helvetica Neue, Helvetica, Arial, sans-serif" font-size="19" fill="#2B201B"><tspan font-family="IBM Plex Mono, Menlo, monospace" font-size="17" fill="#2F8F86">M04</tspan> Laptop tunnel</text><text x="232" y="10.1" font-family="IBM Plex Mono, Menlo, monospace" font-size="17" fill="#6D5F56">placeholder volume</text><text x="232" y="32.2" font-family="IBM Plex Mono, Menlo, monospace" font-size="17" fill="#6D5F56">28 deep, between back and core</text><path d="M-135.5 -98 L-155 -98 L-155 -202.5 L-188 -202.5 L-196 -202.5" fill="none" stroke="#2F8F86" stroke-width="1.3" stroke-linejoin="round"/><circle cx="-135.5" cy="-98" r="3.2" fill="#2F8F86"/><text x="-200" y="-196" text-anchor="end" font-family="Inter Tight, Helvetica Neue, Helvetica, Arial, sans-serif" font-size="19" fill="#2B201B"><tspan font-family="IBM Plex Mono, Menlo, monospace" font-size="17" fill="#2F8F86">M06</tspan> Tripod dock</text><text x="-200" y="-171.9" text-anchor="end" font-family="IBM Plex Mono, Menlo, monospace" font-size="17" fill="#6D5F56">40 mm channel</text><path d="M-60 6 L-154.5 77.5 L-146.5 77.5" fill="none" stroke="#3F8F4E" stroke-width="1.3" stroke-linejoin="round"/><circle cx="-60" cy="6" r="3.2" fill="#3F8F4E"/><text x="-142.5" y="84" font-family="Inter Tight, Helvetica Neue, Helvetica, Arial, sans-serif" font-size="19" fill="#2B201B"><tspan font-family="IBM Plex Mono, Menlo, monospace" font-size="17" fill="#3F8F4E">M01</tspan> Back pads, spine channel</text><text x="-142.5" y="108.1" font-family="IBM Plex Mono, Menlo, monospace" font-size="17" fill="#6D5F56">36 mm channel</text><text x="-380" y="142" font-family="IBM Plex Mono, Menlo, monospace" font-size="17" fill="#6D5F56">mm · start dimensions · positions schematic</text><text x="-380" y="164.9" font-family="IBM Plex Mono, Menlo, monospace" font-size="17" fill="#6D5F56">the cassette sits lower and is not in this cut</text></svg>