<svg xmlns="http://www.w3.org/2000/svg" viewBox="0 0 620 1024" width="620" height="1024" role="img" aria-label="CLX-CT-01 axonometric of the CAD blockout, seen from behind and from the hatch side: a tapered envelope 480 mm tall, 285 mm wide and 180 mm deep at the base, 150 mm at the top. Coded volumes: flat back datum, back panel with frame sheet and spine channel, camera core, side hatch with retention gate, laptop tunnel and cable/audio cassette as placeholder volumes, tripod dock on the hidden side opposite the hatch, four harness mount points, outer shell. Blockout start dimensions; positions schematic."><rect x="0" y="0" width="620" height="1024" fill="#F4EEE4"/><text x="22" y="40" font-family="IBM Plex Mono, Menlo, monospace" font-size="22" fill="#6D5F56" letter-spacing="1.5">CLX-CT-01 · BLOCKOUT AXONOMETRIC</text><path d="M239.9 495.1 L364.1 572.9 L484.9 541 L360.7 463.2 Z" fill="#DBD4C6" fill-opacity=".30"/><path d="M292 462.8 L379.1 517.3 L459.7 496.1 L372.5 441.5 Z M379.1 546.6 L459.7 525.3 L459.7 496.1 L379.1 517.3 Z M292 492 L379.1 546.6 L379.1 517.3 L292 462.8 Z" fill="#7E98A6" fill-opacity=".16"/><path d="M292 492 L292 462.8 M292 492 L372.5 470.7 M292 492 L379.1 546.6 M292 462.8 L372.5 441.5 M292 462.8 L379.1 517.3 M372.5 470.7 L372.5 441.5 M372.5 470.7 L459.7 525.3 M372.5 441.5 L459.7 496.1 M379.1 546.6 L379.1 517.3 M379.1 546.6 L459.7 525.3 M379.1 517.3 L459.7 496.1 M459.7 525.3 L459.7 496.1" fill="none" stroke="#5E6975" stroke-width="1.2" stroke-dasharray="5 3"/><path d="M279.4 463.6 L362.2 515.5 L362.2 303.5 L279.4 251.7 Z" fill="#DC5427" stroke="#12110F" stroke-width=".8"/><path d="M362.2 515.5 L449.4 492.4 L449.4 280.5 L362.2 303.5 Z" fill="#BC4A24" stroke="#12110F" stroke-width=".8"/><path d="M279.4 251.7 L362.2 303.5 L449.4 280.5 L366.6 228.7 Z" fill="#F25C2A" stroke="#12110F" stroke-width=".8"/><path d="M249.7 176 L354.3 241.5 L373.1 236.6 L268.5 171.1 Z M354.3 541.2 L373.1 536.2 L373.1 236.6 L354.3 241.5 Z" fill="#36B3A8" fill-opacity=".16"/><path d="M249.7 475.7 L249.7 176 M249.7 475.7 L268.5 470.7 M249.7 475.7 L354.3 541.2 M249.7 176 L268.5 171.1 M249.7 176 L354.3 241.5 M268.5 470.7 L268.5 171.1 M268.5 470.7 L373.1 536.2 M268.5 171.1 L373.1 236.6 M354.3 541.2 L354.3 241.5 M354.3 541.2 L373.1 536.2 M354.3 241.5 L373.1 236.6 M373.1 536.2 L373.1 236.6" fill="none" stroke="#4E8C89" stroke-width="1.3" stroke-dasharray="6 3"/><path d="M313.7 453.7 L340.6 446.6 L340.6 161.6 L313.7 168.7 Z" fill="#36B3A8" fill-opacity=".14" stroke="#2F7F7A" stroke-width="1.5" stroke-dasharray="3 3"/><path d="M384.3 507.3 L464.8 486.1 L464.8 437.8 L384.3 459.1 Z" fill="#E0A93B" stroke="#12110F" stroke-width=".8"/><path d="M239.9 495.1 L364.1 572.9 L364.1 222.1 L239.9 144.3 Z" fill="#5BB26A" fill-opacity=".16"/><path d="M239.9 495.1 L364.1 572.9 L364.1 222.1 L239.9 144.3 Z" fill="#F4EEE4" fill-opacity=".18"/><path d="M364.1 572.9 L484.9 541 L464.7 195.5 L364.1 222.1 Z M386.2 508.6 L386.2 340.5 L466.8 319.2 L466.8 487.3 Z" fill="#E8E0D2" fill-opacity=".50" fill-rule="evenodd"/><path d="M239.9 144.3 L364.1 222.1 L464.7 195.5 L340.6 117.7 Z" fill="#E8E0D2" fill-opacity=".62"/><path d="M239.9 495.1 L360.7 463.2 L484.9 541 M360.7 463.2 L340.6 117.7" fill="none" stroke="#625A51" stroke-width="1" stroke-dasharray="3 3"/><path d="M239.9 495.1 L364.1 572.9 L484.9 541 L464.7 195.5 L340.6 117.7 L239.9 144.3 L239.9 495.1 M364.1 572.9 L364.1 222.1 L239.9 144.3 M364.1 222.1 L464.7 195.5" fill="none" stroke="#12110F" stroke-width="1.8" stroke-linejoin="round"/><path d="M386.2 508.6 L386.2 340.5 L466.8 319.2 L466.8 487.3 Z" fill="none" stroke="#12110F" stroke-width="1.8"/><path d="M246.2 469.8 L288.9 496.6 L288.9 362.1 L246.2 335.4 Z M246.2 307.6 L288.9 334.3 L288.9 199.9 L246.2 173.1 Z M315.1 513 L357.8 539.7 L357.8 405.2 L315.1 378.5 Z M315.1 350.7 L357.8 377.4 L357.8 243 L315.1 216.2 Z" fill="none" stroke="#625A51" stroke-width=".9"/><path d="M294.2 511.5 L309.8 521.4 L309.8 205.7 L294.2 195.8 Z" fill="#12110F" fill-opacity=".74"/><g fill="#F4EEE4" stroke="#12110F" stroke-width="1.3"><circle cx="269.3" cy="491.6" r="5"/><circle cx="269.3" cy="183.2" r="5"/><circle cx="334.7" cy="532.5" r="5"/><circle cx="334.7" cy="224.1" r="5"/></g><path d="M239.9 495.1 L364.1 572.9 L364.1 222.1 L239.9 144.3 Z" fill="none" stroke="#3F8F4E" stroke-width="1.5" stroke-dasharray="9 4"/><circle cx="302" cy="534" r="3.4" fill="#12110F"/><path d="M231.3 489.7 L159.4 444.7 M231.3 138.9 L159.4 93.9 M168 450.1 L168 99.3 M173 455.1 L163 445.1 M173 104.3 L163 94.3" fill="none" stroke="#2B201B" stroke-width="1.2"/><text x="158" y="282.7" text-anchor="end" font-family="IBM Plex Mono, Menlo, monospace" font-size="22" fill="#2B201B">480</text><path d="M239.9 141.5 L239.9 118.1 M340.6 114.9 L340.6 91.5 M239.9 120.9 L340.6 94.3 M236.4 127 L243.5 114.8 M337 100.4 L344.1 88.2" fill="none" stroke="#2B201B" stroke-width="1.2"/><text x="286.3" y="95.6" text-anchor="middle" font-family="IBM Plex Mono, Menlo, monospace" font-size="22" fill="#2B201B">150</text><path d="M340.6 114.9 L340.6 91.5 M464.7 192.7 L464.7 169.3 M340.6 94.3 L464.7 172.1 M333.7 95.9 L347.5 92.7 M457.9 173.7 L471.6 170.5" fill="none" stroke="#2B201B" stroke-width="1.2"/><text x="424.7" y="125.2" font-family="IBM Plex Mono, Menlo, monospace" font-size="22" fill="#2B201B">285</text><path d="M364.1 575.7 L364.1 599.1 M484.9 543.8 L484.9 567.2 M364.1 596.3 L484.9 564.3 M360.5 602.4 L367.6 590.2 M481.3 570.5 L488.4 558.2" fill="none" stroke="#2B201B" stroke-width="1.2"/><text x="436.5" y="610.3" text-anchor="middle" font-family="IBM Plex Mono, Menlo, monospace" font-size="22" fill="#2B201B">180</text><path d="M269.3 183.2 L237.9 183.7 L229.9 183.7" fill="none" stroke="#2B201B" stroke-width="1.3" stroke-linejoin="round"/><circle cx="269.3" cy="183.2" r="3.2" fill="#2B201B"/><text x="225.9" y="191.2" text-anchor="end" font-family="IBM Plex Mono, Menlo, monospace" font-size="22" fill="#2B201B">M07</text><path d="M249.7 223.5 L237.9 224.1 L229.9 224.1" fill="none" stroke="#2F8F86" stroke-width="1.3" stroke-linejoin="round"/><circle cx="249.7" cy="223.5" r="3.2" fill="#2F8F86"/><text x="225.9" y="231.5" text-anchor="end" font-family="IBM Plex Mono, Menlo, monospace" font-size="22" fill="#2F8F86">M04</text><path d="M327.2 294.5 L237.9 295 L229.9 295" fill="none" stroke="#2F8F86" stroke-width="1.3" stroke-linejoin="round"/><circle cx="327.2" cy="294.5" r="3.2" fill="#2F8F86"/><text x="225.9" y="302.5" text-anchor="end" font-family="IBM Plex Mono, Menlo, monospace" font-size="22" fill="#2F8F86">M06</text><path d="M258.4 433.6 L237.9 434.2 L229.9 434.2" fill="none" stroke="#3F8F4E" stroke-width="1.3" stroke-linejoin="round"/><circle cx="258.4" cy="433.6" r="3.2" fill="#3F8F4E"/><text x="225.9" y="441.6" text-anchor="end" font-family="IBM Plex Mono, Menlo, monospace" font-size="22" fill="#3F8F4E">M01</text><path d="M302 534 L274 566.5 L266 566.5" fill="none" stroke="#3F8F4E" stroke-width="1.3" stroke-linejoin="round"/><circle cx="302" cy="534" r="3.2" fill="#3F8F4E"/><text x="262" y="574" text-anchor="end" font-family="IBM Plex Mono, Menlo, monospace" font-size="22" fill="#3F8F4E">A</text><path d="M468.8 238.3 L490.9 238.8 L498.9 238.8" fill="none" stroke="#2B201B" stroke-width="1.3" stroke-linejoin="round"/><circle cx="468.8" cy="238.3" r="3.2" fill="#2B201B"/><text x="502.9" y="246.3" font-family="IBM Plex Mono, Menlo, monospace" font-size="22" fill="#2B201B">M08</text><path d="M403.8 375.9 L490.9 338.4 L498.9 338.4" fill="none" stroke="#D9532A" stroke-width="1.3" stroke-linejoin="round"/><circle cx="403.8" cy="375.9" r="3.2" fill="#D9532A"/><text x="502.9" y="345.9" font-family="IBM Plex Mono, Menlo, monospace" font-size="22" fill="#D9532A">M02</text><path d="M466.8 399.6 L490.9 400.1 L498.9 400.1 M456.1 464.2 L490.9 400.1" fill="none" stroke="#2B201B" stroke-width="1.3" stroke-linejoin="round"/><circle cx="466.8" cy="399.6" r="3.2" fill="#2B201B"/><circle cx="456.1" cy="464.2" r="3.2" fill="#2B201B"/><text x="502.9" y="407.6" font-family="IBM Plex Mono, Menlo, monospace" font-size="22" fill="#2B201B">M03</text><path d="M419.4 521.3 L490.9 521.8 L498.9 521.8" fill="none" stroke="#5E7A88" stroke-width="1.3" stroke-linejoin="round"/><circle cx="419.4" cy="521.3" r="3.2" fill="#5E7A88"/><text x="502.9" y="529.3" font-family="IBM Plex Mono, Menlo, monospace" font-size="22" fill="#5E7A88">M05</text><text x="20" y="646" font-family="IBM Plex Mono, Menlo, monospace" font-size="22" fill="#3F8F4E">A</text><text x="68" y="646" font-family="Inter Tight, Helvetica Neue, Helvetica, Arial, sans-serif" font-size="23" fill="#2B201B">Flat back datum</text><text x="276" y="646" font-family="IBM Plex Mono, Menlo, monospace" font-size="22" fill="#3F8F4E">M01</text><text x="324" y="646" font-family="Inter Tight, Helvetica Neue, Helvetica, Arial, sans-serif" font-size="23" fill="#2B201B">Back panel + frame sheet</text><text x="20" y="686.2" font-family="IBM Plex Mono, Menlo, monospace" font-size="22" fill="#D9532A">M02</text><text x="68" y="686.2" font-family="Inter Tight, Helvetica Neue, Helvetica, Arial, sans-serif" font-size="23" fill="#2B201B">Camera core</text><text x="276" y="686.2" font-family="IBM Plex Mono, Menlo, monospace" font-size="22" fill="#2B201B">M03</text><text x="324" y="686.2" font-family="Inter Tight, Helvetica Neue, Helvetica, Arial, sans-serif" font-size="23" fill="#2B201B">Side hatch + retention gate</text><text x="20" y="726.5" font-family="IBM Plex Mono, Menlo, monospace" font-size="22" fill="#2F8F86">M04</text><text x="68" y="726.5" font-family="Inter Tight, Helvetica Neue, Helvetica, Arial, sans-serif" font-size="23" fill="#2B201B">Laptop tunnel</text><text x="68" y="754" font-family="Inter Tight, Helvetica Neue, Helvetica, Arial, sans-serif" font-size="22" fill="#6D5F56">placeholder volume</text><text x="276" y="726.5" font-family="IBM Plex Mono, Menlo, monospace" font-size="22" fill="#5E7A88">M05</text><text x="324" y="726.5" font-family="Inter Tight, Helvetica Neue, Helvetica, Arial, sans-serif" font-size="23" fill="#2B201B">Cable / audio cassette</text><text x="324" y="754" font-family="Inter Tight, Helvetica Neue, Helvetica, Arial, sans-serif" font-size="22" fill="#6D5F56">placeholder volume</text><text x="20" y="794.2" font-family="IBM Plex Mono, Menlo, monospace" font-size="22" fill="#2F8F86">M06</text><text x="68" y="794.2" font-family="Inter Tight, Helvetica Neue, Helvetica, Arial, sans-serif" font-size="23" fill="#2B201B">Tripod dock</text><text x="68" y="821.8" font-family="Inter Tight, Helvetica Neue, Helvetica, Arial, sans-serif" font-size="22" fill="#6D5F56">opposite the hatch</text><text x="276" y="794.2" font-family="IBM Plex Mono, Menlo, monospace" font-size="22" fill="#2B201B">M07</text><text x="324" y="794.2" font-family="Inter Tight, Helvetica Neue, Helvetica, Arial, sans-serif" font-size="23" fill="#2B201B">Harness / load transfer</text><text x="324" y="821.8" font-family="Inter Tight, Helvetica Neue, Helvetica, Arial, sans-serif" font-size="22" fill="#6D5F56">only 4 mount points so far</text><text x="276" y="862" font-family="IBM Plex Mono, Menlo, monospace" font-size="22" fill="#2B201B">M08</text><text x="324" y="862" font-family="Inter Tight, Helvetica Neue, Helvetica, Arial, sans-serif" font-size="23" fill="#2B201B">Outer shell / weather layer</text><g font-family="IBM Plex Mono, Menlo, monospace" font-size="22" fill="#6D5F56"><line x1="20" y1="899" x2="64" y2="899" stroke="#2B201B" stroke-width="2.2"/><text x="75" y="906.2">blockout volume</text><line x1="315.9" y1="899" x2="359.9" y2="899" stroke="#2B201B" stroke-width="1.2" stroke-dasharray="3 3"/><text x="370.9" y="906.2">hidden edge</text></g><g font-family="IBM Plex Mono, Menlo, monospace" font-size="22" fill="#6D5F56"><line x1="20" y1="933.1" x2="64" y2="933.1" stroke="#2F8F86" stroke-width="1.8" stroke-dasharray="7 4"/><text x="75" y="940.4">placeholder volume, not validated</text></g><text x="20" y="976.6" font-family="IBM Plex Mono, Menlo, monospace" font-size="22" fill="#6D5F56">mm · blockout start dimensions</text><text x="20" y="1006.4" font-family="IBM Plex Mono, Menlo, monospace" font-size="22" fill="#6D5F56">positions schematic</text></svg>